<?xml version="1.0" encoding="UTF-8" standalone="no"?><svg xmlns="http://www.w3.org/2000/svg" xmlns:xlink="http://www.w3.org/1999/xlink" contentStyleType="text/css" height="445px" preserveAspectRatio="none" style="width:744px;height:445px;background:#FFFFFF;" version="1.1" viewBox="0 0 744 445" width="744px" zoomAndPan="magnify"><defs><filter height="1" id="ba07ssp9f5u4d0" width="1" x="0" y="0"><feFlood flood-color="#A4F7B6" result="flood"/><feComposite in="SourceGraphic" in2="flood" operator="over"/></filter><filter height="1" id="ba07ssp9f5u4d1" width="1" x="0" y="0"><feFlood flood-color="#F6E3B6" result="flood"/><feComposite in="SourceGraphic" in2="flood" operator="over"/></filter><filter height="1" id="ba07ssp9f5u4d2" width="1" x="0" y="0"><feFlood flood-color="#F5F5F5" result="flood"/><feComposite in="SourceGraphic" in2="flood" operator="over"/></filter></defs><g><rect fill="#283747" height="29" style="stroke:none;stroke-width:1.0;" width="736" x="0" y="0"/><rect fill="#283747" height="16" style="stroke:none;stroke-width:1.0;" width="736" x="0" y="324.125"/><text fill="#FFFAFA" font-family="Serif" font-size="10" lengthAdjust="spacing" textLength="10" x="25" y="26.4785">10</text><text fill="#FFFAFA" font-family="Serif" font-size="10" lengthAdjust="spacing" textLength="10" x="53" y="26.4785">11</text><text fill="#FFFAFA" font-family="Serif" font-size="10" lengthAdjust="spacing" textLength="10" x="81" y="26.4785">12</text><text fill="#FFFAFA" font-family="Serif" font-size="10" lengthAdjust="spacing" textLength="10" x="109" y="26.4785">13</text><text fill="#FFFAFA" font-family="Serif" font-size="10" lengthAdjust="spacing" textLength="10" x="137" y="26.4785">14</text><text fill="#FFFAFA" font-family="Serif" font-size="10" lengthAdjust="spacing" textLength="10" x="165" y="26.4785">15</text><text fill="#FFFAFA" font-family="Serif" font-size="10" lengthAdjust="spacing" textLength="10" x="193" y="26.4785">16</text><text fill="#FFFAFA" font-family="Serif" font-size="10" lengthAdjust="spacing" textLength="10" x="221" y="26.4785">17</text><text fill="#FFFAFA" font-family="Serif" font-size="10" lengthAdjust="spacing" textLength="10" x="249" y="26.4785">18</text><text fill="#FFFAFA" font-family="Serif" font-size="10" lengthAdjust="spacing" textLength="10" x="277" y="26.4785">19</text><text fill="#FFFAFA" font-family="Serif" font-size="10" lengthAdjust="spacing" textLength="10" x="305" y="26.4785">20</text><text fill="#FFFAFA" font-family="Serif" font-size="10" lengthAdjust="spacing" textLength="10" x="333" y="26.4785">21</text><text fill="#FFFAFA" font-family="Serif" font-size="10" lengthAdjust="spacing" textLength="10" x="361" y="26.4785">22</text><text fill="#FFFAFA" font-family="Serif" font-size="10" lengthAdjust="spacing" textLength="10" x="389" y="26.4785">23</text><text fill="#FFFAFA" font-family="Serif" font-size="10" lengthAdjust="spacing" textLength="10" x="417" y="26.4785">24</text><text fill="#FFFAFA" font-family="Serif" font-size="10" lengthAdjust="spacing" textLength="10" x="445" y="26.4785">25</text><text fill="#FFFAFA" font-family="Serif" font-size="10" lengthAdjust="spacing" textLength="10" x="473" y="26.4785">26</text><text fill="#FFFAFA" font-family="Serif" font-size="10" lengthAdjust="spacing" textLength="10" x="501" y="26.4785">27</text><text fill="#FFFAFA" font-family="Serif" font-size="10" lengthAdjust="spacing" textLength="10" x="529" y="26.4785">28</text><text fill="#FFFAFA" font-family="Serif" font-size="10" lengthAdjust="spacing" textLength="10" x="557" y="26.4785">29</text><text fill="#FFFAFA" font-family="Serif" font-size="10" lengthAdjust="spacing" textLength="10" x="585" y="26.4785">30</text><text fill="#FFFAFA" font-family="Serif" font-size="10" lengthAdjust="spacing" textLength="10" x="613" y="26.4785">31</text><text fill="#FFFAFA" font-family="Serif" font-size="10" lengthAdjust="spacing" textLength="10" x="641" y="26.4785">32</text><text fill="#FFFAFA" font-family="Serif" font-size="10" lengthAdjust="spacing" textLength="10" x="669" y="26.4785">33</text><text fill="#FFFAFA" font-family="Serif" font-size="10" lengthAdjust="spacing" textLength="10" x="697" y="26.4785">34</text><text fill="#FFFAFA" font-family="Serif" font-size="10" lengthAdjust="spacing" textLength="10" x="725" y="26.4785">35</text><line style="stroke:#C0C0C0;stroke-width:1.0;" x1="20" x2="20" y1="16" y2="324.125"/><line style="stroke:#C0C0C0;stroke-width:1.0;" x1="48" x2="48" y1="16" y2="324.125"/><line style="stroke:#C0C0C0;stroke-width:1.0;" x1="76" x2="76" y1="16" y2="324.125"/><line style="stroke:#C0C0C0;stroke-width:1.0;" x1="104" x2="104" y1="16" y2="324.125"/><line style="stroke:#C0C0C0;stroke-width:1.0;" x1="132" x2="132" y1="16" y2="324.125"/><line style="stroke:#C0C0C0;stroke-width:1.0;" x1="160" x2="160" y1="16" y2="324.125"/><line style="stroke:#C0C0C0;stroke-width:1.0;" x1="188" x2="188" y1="16" y2="324.125"/><line style="stroke:#C0C0C0;stroke-width:1.0;" x1="216" x2="216" y1="16" y2="324.125"/><line style="stroke:#C0C0C0;stroke-width:1.0;" x1="244" x2="244" y1="16" y2="324.125"/><line style="stroke:#C0C0C0;stroke-width:1.0;" x1="272" x2="272" y1="16" y2="324.125"/><line style="stroke:#C0C0C0;stroke-width:1.0;" x1="300" x2="300" y1="16" y2="324.125"/><line style="stroke:#C0C0C0;stroke-width:1.0;" x1="328" x2="328" y1="16" y2="324.125"/><line style="stroke:#C0C0C0;stroke-width:1.0;" x1="356" x2="356" y1="16" y2="324.125"/><line style="stroke:#C0C0C0;stroke-width:1.0;" x1="384" x2="384" y1="16" y2="324.125"/><line style="stroke:#C0C0C0;stroke-width:1.0;" x1="412" x2="412" y1="16" y2="324.125"/><line style="stroke:#C0C0C0;stroke-width:1.0;" x1="440" x2="440" y1="16" y2="324.125"/><line style="stroke:#C0C0C0;stroke-width:1.0;" x1="468" x2="468" y1="16" y2="324.125"/><line style="stroke:#C0C0C0;stroke-width:1.0;" x1="496" x2="496" y1="16" y2="324.125"/><line style="stroke:#C0C0C0;stroke-width:1.0;" x1="524" x2="524" y1="16" y2="324.125"/><line style="stroke:#C0C0C0;stroke-width:1.0;" x1="552" x2="552" y1="16" y2="324.125"/><line style="stroke:#C0C0C0;stroke-width:1.0;" x1="580" x2="580" y1="16" y2="324.125"/><line style="stroke:#C0C0C0;stroke-width:1.0;" x1="608" x2="608" y1="16" y2="324.125"/><line style="stroke:#C0C0C0;stroke-width:1.0;" x1="636" x2="636" y1="16" y2="324.125"/><line style="stroke:#C0C0C0;stroke-width:1.0;" x1="664" x2="664" y1="16" y2="324.125"/><line style="stroke:#C0C0C0;stroke-width:1.0;" x1="692" x2="692" y1="16" y2="324.125"/><line style="stroke:#C0C0C0;stroke-width:1.0;" x1="720" x2="720" y1="16" y2="324.125"/><line style="stroke:#C0C0C0;stroke-width:1.0;" x1="736" x2="736" y1="16" y2="324.125"/><line style="stroke:#C0C0C0;stroke-width:1.0;" x1="0" x2="0" y1="0" y2="16"/><line style="stroke:#C0C0C0;stroke-width:1.0;" x1="124" x2="124" y1="0" y2="16"/><text fill="#FFFAFA" font-family="Serif" font-size="12" font-weight="bold" lengthAdjust="spacing" textLength="49" x="37.5" y="12.5742">Mar 2023</text><line style="stroke:#C0C0C0;stroke-width:1.0;" x1="244" x2="244" y1="0" y2="16"/><text fill="#FFFAFA" font-family="Serif" font-size="12" font-weight="bold" lengthAdjust="spacing" textLength="46" x="161" y="12.5742">Apr 2023</text><line style="stroke:#C0C0C0;stroke-width:1.0;" x1="368" x2="368" y1="0" y2="16"/><text fill="#FFFAFA" font-family="Serif" font-size="12" font-weight="bold" lengthAdjust="spacing" textLength="50" x="281" y="12.5742">May 2023</text><line style="stroke:#C0C0C0;stroke-width:1.0;" x1="488" x2="488" y1="0" y2="16"/><text fill="#FFFAFA" font-family="Serif" font-size="12" font-weight="bold" lengthAdjust="spacing" textLength="47" x="404.5" y="12.5742">Jun 2023</text><line style="stroke:#C0C0C0;stroke-width:1.0;" x1="612" x2="612" y1="0" y2="16"/><text fill="#FFFAFA" font-family="Serif" font-size="12" font-weight="bold" lengthAdjust="spacing" textLength="44" x="528" y="12.5742">Jul 2023</text><line style="stroke:#C0C0C0;stroke-width:1.0;" x1="736" x2="736" y1="0" y2="16"/><text fill="#FFFAFA" font-family="Serif" font-size="12" font-weight="bold" lengthAdjust="spacing" textLength="48" x="650" y="12.5742">Aug 2023</text><line style="stroke:#C0C0C0;stroke-width:1.0;" x1="0" x2="736" y1="0" y2="0"/><line style="stroke:#C0C0C0;stroke-width:1.0;" x1="0" x2="736" y1="16" y2="16"/><line style="stroke:#C0C0C0;stroke-width:1.0;" x1="0" x2="736" y1="29" y2="29"/><line style="stroke:#808080;stroke-width:1.0;" x1="115" x2="115" y1="88.2188" y2="115.7656"/><line style="stroke:#808080;stroke-width:1.0;" x1="115" x2="123" y1="115.7656" y2="115.7656"/><polygon fill="#808080" points="119,111.7656,119,115.7656,119,119.7656,123,115.7656" style="stroke:#808080;stroke-width:1.5;"/><line style="stroke:#808080;stroke-width:1.0;" x1="235" x2="235" y1="123.3125" y2="134.8594"/><line style="stroke:#808080;stroke-width:1.0;" x1="235" x2="243" y1="134.8594" y2="134.8594"/><polygon fill="#808080" points="239,130.8594,239,134.8594,239,138.8594,243,134.8594" style="stroke:#808080;stroke-width:1.5;"/><line style="stroke:#808080;stroke-width:1.0;" x1="359" x2="359" y1="142.4063" y2="153.9531"/><line style="stroke:#808080;stroke-width:1.0;" x1="359" x2="367" y1="153.9531" y2="153.9531"/><polygon fill="#808080" points="363,149.9531,363,153.9531,363,157.9531,367,153.9531" style="stroke:#808080;stroke-width:1.5;"/><line style="stroke:#808080;stroke-width:1.0;" x1="479" x2="479" y1="161.5" y2="173.0469"/><line style="stroke:#808080;stroke-width:1.0;" x1="479" x2="487" y1="173.0469" y2="173.0469"/><polygon fill="#808080" points="483,169.0469,483,173.0469,483,177.0469,487,173.0469" style="stroke:#808080;stroke-width:1.5;"/><line style="stroke:#808080;stroke-width:1.0;" x1="603" x2="603" y1="180.5938" y2="192.1406"/><line style="stroke:#808080;stroke-width:1.0;" x1="603" x2="611" y1="192.1406" y2="192.1406"/><polygon fill="#808080" points="607,188.1406,607,192.1406,607,196.1406,611,192.1406" style="stroke:#808080;stroke-width:1.5;"/><line style="stroke:#808080;stroke-width:1.0;" x1="115" x2="115" y1="88.2188" y2="253.3594"/><line style="stroke:#808080;stroke-width:1.0;" x1="115" x2="123" y1="253.3594" y2="253.3594"/><polygon fill="#808080" points="119,249.3594,119,253.3594,119,257.3594,123,253.3594" style="stroke:#808080;stroke-width:1.5;"/><line style="stroke:#808080;stroke-width:1.0;" x1="235" x2="235" y1="260.9063" y2="314.5781"/><line style="stroke:#808080;stroke-width:1.0;" x1="235" x2="243" y1="314.5781" y2="314.5781"/><polygon fill="#808080" points="239,310.5781,239,314.5781,239,318.5781,243,314.5781" style="stroke:#808080;stroke-width:1.5;"/><rect fill="#191970" fill-opacity="0.50196" height="32.125" style="stroke:none;stroke-width:1.0;" width="736" x="0" y="34"/><line style="stroke:#00000000;stroke-width:1.0;" x1="0" x2="6" y1="50.0625" y2="50.0625"/><line style="stroke:#00000000;stroke-width:1.0;" x1="83" x2="735" y1="50.0625" y2="50.0625"/><rect fill="#A4F7B6" height="15.0938" style="stroke:none;stroke-width:1.0;" width="120" x="2" y="73.125"/><line style="stroke:#008000;stroke-width:1.0;" x1="2" x2="122" y1="73.125" y2="73.125"/><line style="stroke:#008000;stroke-width:1.0;" x1="2" x2="122" y1="88.2188" y2="88.2188"/><line style="stroke:#008000;stroke-width:1.0;" x1="2" x2="2" y1="73.125" y2="88.2188"/><line style="stroke:#008000;stroke-width:1.0;" x1="122" x2="122" y1="73.125" y2="88.2188"/><polygon fill="#FFFF00" points="122,92.2188,128,98.2188,122,104.2188,116,98.2188" style="stroke:#008000;stroke-width:1.0;"/><rect fill="#A4F7B6" height="15.0938" style="stroke:none;stroke-width:1.0;" width="116" x="126" y="108.2188"/><line style="stroke:#008000;stroke-width:1.0;" x1="126" x2="242" y1="108.2188" y2="108.2188"/><line style="stroke:#008000;stroke-width:1.0;" x1="126" x2="242" y1="123.3125" y2="123.3125"/><line style="stroke:#008000;stroke-width:1.0;" x1="126" x2="126" y1="108.2188" y2="123.3125"/><line style="stroke:#008000;stroke-width:1.0;" x1="242" x2="242" y1="108.2188" y2="123.3125"/><rect fill="#A4F7B6" height="15.0938" style="stroke:none;stroke-width:1.0;" width="120" x="246" y="127.3125"/><line style="stroke:#008000;stroke-width:1.0;" x1="246" x2="366" y1="127.3125" y2="127.3125"/><line style="stroke:#008000;stroke-width:1.0;" x1="246" x2="366" y1="142.4063" y2="142.4063"/><line style="stroke:#008000;stroke-width:1.0;" x1="246" x2="246" y1="127.3125" y2="142.4063"/><line style="stroke:#008000;stroke-width:1.0;" x1="366" x2="366" y1="127.3125" y2="142.4063"/><rect fill="#A4F7B6" height="15.0938" style="stroke:none;stroke-width:1.0;" width="69.6" x="370" y="146.4063"/><rect fill="#FFFFFF" height="15.0938" style="stroke:none;stroke-width:1.0;" width="46.4" x="439.6" y="146.4063"/><line style="stroke:#008000;stroke-width:1.0;" x1="370" x2="486" y1="146.4063" y2="146.4063"/><line style="stroke:#008000;stroke-width:1.0;" x1="370" x2="486" y1="161.5" y2="161.5"/><line style="stroke:#008000;stroke-width:1.0;" x1="370" x2="370" y1="146.4063" y2="161.5"/><line style="stroke:#008000;stroke-width:1.0;" x1="486" x2="486" y1="146.4063" y2="161.5"/><rect fill="#FFFFFF" height="15.0938" style="stroke:none;stroke-width:1.0;" width="120" x="490" y="165.5"/><line style="stroke:#008000;stroke-width:1.0;" x1="490" x2="610" y1="165.5" y2="165.5"/><line style="stroke:#008000;stroke-width:1.0;" x1="490" x2="610" y1="180.5938" y2="180.5938"/><line style="stroke:#008000;stroke-width:1.0;" x1="490" x2="490" y1="165.5" y2="180.5938"/><line style="stroke:#008000;stroke-width:1.0;" x1="610" x2="610" y1="165.5" y2="180.5938"/><rect fill="#FFFFFF" height="15.0938" style="stroke:none;stroke-width:1.0;" width="120" x="614" y="184.5938"/><line style="stroke:#008000;stroke-width:1.0;" x1="614" x2="734" y1="184.5938" y2="184.5938"/><line style="stroke:#008000;stroke-width:1.0;" x1="614" x2="734" y1="199.6875" y2="199.6875"/><line style="stroke:#008000;stroke-width:1.0;" x1="614" x2="614" y1="184.5938" y2="199.6875"/><line style="stroke:#008000;stroke-width:1.0;" x1="734" x2="734" y1="184.5938" y2="199.6875"/><rect fill="#191970" fill-opacity="0.50196" height="32.125" style="stroke:none;stroke-width:1.0;" width="736" x="0" y="206.6875"/><line style="stroke:#00000000;stroke-width:1.0;" x1="0" x2="6" y1="222.75" y2="222.75"/><line style="stroke:#00000000;stroke-width:1.0;" x1="83" x2="735" y1="222.75" y2="222.75"/><rect fill="#FFFFFF" height="15.0938" style="stroke:none;stroke-width:1.0;" width="116" x="126" y="245.8125"/><line style="stroke:#F6E3B6;stroke-width:1.0;" x1="126" x2="242" y1="245.8125" y2="245.8125"/><line style="stroke:#F6E3B6;stroke-width:1.0;" x1="126" x2="242" y1="260.9063" y2="260.9063"/><line style="stroke:#F6E3B6;stroke-width:1.0;" x1="126" x2="126" y1="245.8125" y2="260.9063"/><line style="stroke:#F6E3B6;stroke-width:1.0;" x1="242" x2="242" y1="245.8125" y2="260.9063"/><rect fill="#191970" fill-opacity="0.50196" height="32.125" style="stroke:none;stroke-width:1.0;" width="736" x="0" y="267.9063"/><line style="stroke:#00000000;stroke-width:1.0;" x1="0" x2="6" y1="283.9688" y2="283.9688"/><line style="stroke:#00000000;stroke-width:1.0;" x1="83" x2="735" y1="283.9688" y2="283.9688"/><rect fill="#FFFFFF" height="15.0938" style="stroke:none;stroke-width:1.0;" width="116" x="246" y="307.0313"/><line style="stroke:#F5F5F5;stroke-width:1.0;" x1="246" x2="362" y1="307.0313" y2="307.0313"/><line style="stroke:#F5F5F5;stroke-width:1.0;" x1="246" x2="362" y1="322.125" y2="322.125"/><line style="stroke:#F5F5F5;stroke-width:1.0;" x1="246" x2="246" y1="307.0313" y2="322.125"/><line style="stroke:#F5F5F5;stroke-width:1.0;" x1="362" x2="362" y1="307.0313" y2="322.125"/><text fill="#FFFFFF" font-family="sans-serif" font-size="16" font-weight="bold" lengthAdjust="spacing" textLength="67" x="11" y="56.6094">Stream 1</text><text fill="#000000" font-family="Helvetica" font-size="12" font-weight="bold" lengthAdjust="spacing" textLength="211" x="126" y="85.582">Requirements gathering and analysis</text><text fill="#000000" font-family="Helvetica" font-size="0" font-weight="bold" lengthAdjust="spacing" textLength="0" x="337" y="78.2188">ms1_req</text><text fill="#000000" font-family="sans-serif" font-size="12" font-weight="bold" lengthAdjust="spacing" textLength="111" x="131" y="103.1289">Requirements docs</text><text fill="#000000" font-family="Helvetica" font-size="12" font-weight="bold" lengthAdjust="spacing" textLength="39" x="130" y="120.6758">Design</text><text fill="#000000" font-family="Helvetica" font-size="0" font-weight="bold" lengthAdjust="spacing" textLength="0" x="169" y="113.3125">ms1_des</text><text fill="#000000" font-family="Helvetica" font-size="12" font-weight="bold" lengthAdjust="spacing" textLength="144" x="370" y="139.7695">Implementation or coding</text><text fill="#000000" font-family="Helvetica" font-size="0" font-weight="bold" lengthAdjust="spacing" textLength="0" x="514" y="132.4063">ms1_imp</text><text fill="#000000" font-family="Helvetica" font-size="12" font-weight="bold" lengthAdjust="spacing" textLength="42" x="374" y="158.8633">Testing</text><text fill="#000000" font-family="Helvetica" font-size="0" font-weight="bold" lengthAdjust="spacing" textLength="0" x="416" y="151.5">ms1_tes</text><text fill="#000000" font-family="Helvetica" font-size="12" font-weight="bold" lengthAdjust="spacing" textLength="128" x="614" y="177.957">Deployment or release</text><text fill="#000000" font-family="Helvetica" font-size="0" font-weight="bold" lengthAdjust="spacing" textLength="0" x="742" y="170.5938">ms1_dep</text><text fill="#000000" font-family="Helvetica" font-size="12" font-weight="bold" lengthAdjust="spacing" textLength="73" x="618" y="197.0508">Maintenance</text><text fill="#000000" font-family="Helvetica" font-size="0" font-weight="bold" lengthAdjust="spacing" textLength="0" x="691" y="189.6875">ms1_mai</text><text fill="#FFFFFF" font-family="sans-serif" font-size="16" font-weight="bold" lengthAdjust="spacing" textLength="67" x="11" y="229.2969">Stream 2</text><text fill="#000000" font-family="Helvetica" font-size="12" font-weight="bold" lengthAdjust="spacing" textLength="23" x="130" y="258.2695">PoC</text><text fill="#000000" font-family="Helvetica" font-size="0" font-weight="bold" lengthAdjust="spacing" textLength="0" x="153" y="250.9063">ms2_poc</text><text fill="#FFFFFF" font-family="sans-serif" font-size="16" font-weight="bold" lengthAdjust="spacing" textLength="67" x="11" y="290.5156">Stream 3</text><text fill="#000000" font-family="Helvetica" font-size="12" font-weight="bold" lengthAdjust="spacing" textLength="23" x="250" y="319.4883">PoC</text><text fill="#000000" font-family="Helvetica" font-size="0" font-weight="bold" lengthAdjust="spacing" textLength="0" x="273" y="312.125">ms3_poc</text><line style="stroke:#C0C0C0;stroke-width:1.0;" x1="0" x2="736" y1="324.125" y2="324.125"/><line style="stroke:#C0C0C0;stroke-width:1.0;" x1="0" x2="0" y1="324.125" y2="340.125"/><line style="stroke:#C0C0C0;stroke-width:1.0;" x1="124" x2="124" y1="324.125" y2="340.125"/><text fill="#FFFAFA" font-family="Serif" font-size="12" font-weight="bold" lengthAdjust="spacing" textLength="49" x="37.5" y="336.6992">Mar 2023</text><line style="stroke:#C0C0C0;stroke-width:1.0;" x1="244" x2="244" y1="324.125" y2="340.125"/><text fill="#FFFAFA" font-family="Serif" font-size="12" font-weight="bold" lengthAdjust="spacing" textLength="46" x="161" y="336.6992">Apr 2023</text><line style="stroke:#C0C0C0;stroke-width:1.0;" x1="368" x2="368" y1="324.125" y2="340.125"/><text fill="#FFFAFA" font-family="Serif" font-size="12" font-weight="bold" lengthAdjust="spacing" textLength="50" x="281" y="336.6992">May 2023</text><line style="stroke:#C0C0C0;stroke-width:1.0;" x1="488" x2="488" y1="324.125" y2="340.125"/><text fill="#FFFAFA" font-family="Serif" font-size="12" font-weight="bold" lengthAdjust="spacing" textLength="47" x="404.5" y="336.6992">Jun 2023</text><line style="stroke:#C0C0C0;stroke-width:1.0;" x1="612" x2="612" y1="324.125" y2="340.125"/><text fill="#FFFAFA" font-family="Serif" font-size="12" font-weight="bold" lengthAdjust="spacing" textLength="44" x="528" y="336.6992">Jul 2023</text><line style="stroke:#C0C0C0;stroke-width:1.0;" x1="736" x2="736" y1="324.125" y2="340.125"/><text fill="#FFFAFA" font-family="Serif" font-size="12" font-weight="bold" lengthAdjust="spacing" textLength="48" x="650" y="336.6992">Aug 2023</text><line style="stroke:#C0C0C0;stroke-width:1.0;" x1="0" x2="736" y1="340.125" y2="340.125"/><rect fill="#FFFFFF" height="86.4375" id="_legend" rx="7.5" ry="7.5" style="stroke:#000000;stroke-width:1.0;" width="158" x="8" y="348.125"/><text fill="#000000" font-family="sans-serif" font-size="14" font-weight="bold" lengthAdjust="spacing" textLength="4" x="14" y="370.6582"> </text><text fill="#000000" font-family="sans-serif" font-size="14" font-weight="bold" lengthAdjust="spacing" textLength="106" x="50" y="370.6582">Accuracy Level</text><text fill="#000000" filter="url(#ba07ssp9f5u4d0)" font-family="sans-serif" font-size="14" lengthAdjust="spacing" textLength="32" x="14" y="388.2676">        </text><text fill="#000000" font-family="sans-serif" font-size="14" lengthAdjust="spacing" textLength="28" x="50" y="388.2676">High</text><text fill="#000000" filter="url(#ba07ssp9f5u4d1)" font-family="sans-serif" font-size="14" lengthAdjust="spacing" textLength="32" x="14" y="405.877">        </text><text fill="#000000" font-family="sans-serif" font-size="14" lengthAdjust="spacing" textLength="41" x="50" y="405.877">Middle</text><text fill="#000000" filter="url(#ba07ssp9f5u4d2)" font-family="sans-serif" font-size="14" lengthAdjust="spacing" textLength="32" x="14" y="423.4863">        </text><text fill="#000000" font-family="sans-serif" font-size="14" lengthAdjust="spacing" textLength="25" x="50" y="423.4863">Low</text><line style="stroke:#000000;stroke-width:1.0;" x1="14" x2="160" y1="356.125" y2="356.125"/><line style="stroke:#000000;stroke-width:1.0;" x1="14" x2="160" y1="373.7344" y2="373.7344"/><line style="stroke:#000000;stroke-width:1.0;" x1="14" x2="160" y1="391.3438" y2="391.3438"/><line style="stroke:#000000;stroke-width:1.0;" x1="14" x2="160" y1="408.9531" y2="408.9531"/><line style="stroke:#000000;stroke-width:1.0;" x1="14" x2="160" y1="426.5625" y2="426.5625"/><line style="stroke:#000000;stroke-width:1.0;" x1="14" x2="14" y1="356.125" y2="426.5625"/><line style="stroke:#000000;stroke-width:1.0;" x1="46" x2="46" y1="356.125" y2="426.5625"/><line style="stroke:#000000;stroke-width:1.0;" x1="160" x2="160" y1="356.125" y2="426.5625"/><!--MD5=[f9923cbdb5301f29a70b8f58f51e068b]
@startgantt gantt
!include vars.pu
!include style.pu
!include function.pu

skinparam LegendBackgroundColor LEGEND_BACK_GROUND_COLOR

legend left
|= |= Accuracy Level |
|<back:HIGH_ACC_COL>        </back>| High |
|<back:MIDDLE_ACC_COL>        </back>| Middle |
|<back:LOW_ACC_COL>        </back>| Low |
endlegend

projectscale weekly zoom 1
Project starts 2023-03-01
' saturday are closed
' sunday are closed

- - Stream 1 - -

N("Requirements gathering and analysis", ms1_req) as [ms1_req] is 100% completed
[ms1_req] starts 2023-03-01
[ms1_req] ends 2023-03-31
[Requirements docs] happens at [ms1_req]'s end

N("Design", ms1_des) as [ms1_des] is 100% completed
[ms1_des] starts 2023-04-01
[ms1_des] ends 2023-04-30

N("Implementation or coding", ms1_imp) as [ms1_imp] is 100% completed
[ms1_imp] starts 2023-05-01
[ms1_imp] ends 2023-05-31

N("Testing", ms1_tes) as [ms1_tes] is 60% completed
[ms1_tes] starts 2023-06-01
[ms1_tes] ends 2023-06-30

N("Deployment or release", ms1_dep) as [ms1_dep] is 0% completed
[ms1_dep] starts 2023-07-01
[ms1_dep] ends 2023-07-31

N("Maintenance", ms1_mai) as [ms1_mai] is 0% completed
[ms1_mai] starts 2023-08-01
[ms1_mai] ends 2023-08-31

[ms1_req] - -> [ms1_des]
[ms1_des] - -> [ms1_imp]
[ms1_imp] - -> [ms1_tes]
[ms1_tes] - -> [ms1_dep]
[ms1_dep] - -> [ms1_mai]

- - Stream 2 - - 

N("PoC", ms2_poc) as [ms2_poc] is 0% completed
[ms2_poc] starts 2023-04-01
[ms2_poc] ends 2023-04-30
[ms2_poc] is colored in MIDDLE_ACC_COL

[ms1_req] - -> [ms2_poc]

- - Stream 3 - - 

N("PoC", ms3_poc) as [ms3_poc] is 0% completed
[ms3_poc] starts 2023-05-01
[ms3_poc] ends 2023-05-30
[ms3_poc] is colored in LOW_ACC_COL

[ms2_poc] - -> [ms3_poc]

@endgantt

@startgantt gantt
<style>
ganttDiagram {
    unstartedTask {
        FontName Helvetica
        FontColor Black
        FontSize 12
        FontStyle bold
        BackGroundColor DeepSkyBlue
        LineColor DeepSkyBlue
    }
    task {
        FontName Helvetica
        FontColor Black
        FontSize 12
        FontStyle bold
        BackGroundColor A4F7B6
        LineColor green
    }
    milestone {
        FontColor black
        FontSize 12
        FontStyle bold
        BackGroundColor yellow
        LineColor green
    }
    note {
        FontColor DarkGreen
        FontSize 10
        LineColor OrangeRed
    }
    arrow {
        FontName Helvetica
        FontColor black
        FontSize 12
        FontStyle bold
        BackGroundColor 00000000
        LineColor gray
        LineThickness 1.0
    }
    separator {
        BackgroundColor 19197080
        LineStyle 8.0;3.0
        LineColor 00000000
        LineThickness 1.0
        FontSize 16
        FontStyle bold
        FontColor White
        Margin 5
        Padding 6
    }
    timeline {
        BackgroundColor 283747
        FontColor Snow
    }
    closed {
        BackgroundColor pink
        FontColor red
    }
}
</style>





skinparam LegendBackgroundColor #FFFFFF

legend left
|= |= Accuracy Level |
|<back:#A4F7B6>        </back>| High |
|<back:#F6E3B6>        </back>| Middle |
|<back:#F5F5F5>        </back>| Low |
endlegend

projectscale weekly zoom 1
Project starts 2023-03-01

- - Stream 1 - -

[Requirements gathering and analysis<size:0>ms1_req</size>] as [ms1_req] is 100% completed
[ms1_req] starts 2023-03-01
[ms1_req] ends 2023-03-31
[Requirements docs] happens at [ms1_req]'s end

[Design<size:0>ms1_des</size>] as [ms1_des] is 100% completed
[ms1_des] starts 2023-04-01
[ms1_des] ends 2023-04-30

[Implementation or coding<size:0>ms1_imp</size>] as [ms1_imp] is 100% completed
[ms1_imp] starts 2023-05-01
[ms1_imp] ends 2023-05-31

[Testing<size:0>ms1_tes</size>] as [ms1_tes] is 60% completed
[ms1_tes] starts 2023-06-01
[ms1_tes] ends 2023-06-30

[Deployment or release<size:0>ms1_dep</size>] as [ms1_dep] is 0% completed
[ms1_dep] starts 2023-07-01
[ms1_dep] ends 2023-07-31

[Maintenance<size:0>ms1_mai</size>] as [ms1_mai] is 0% completed
[ms1_mai] starts 2023-08-01
[ms1_mai] ends 2023-08-31

[ms1_req] - -> [ms1_des]
[ms1_des] - -> [ms1_imp]
[ms1_imp] - -> [ms1_tes]
[ms1_tes] - -> [ms1_dep]
[ms1_dep] - -> [ms1_mai]

- - Stream 2 - - 

[PoC<size:0>ms2_poc</size>] as [ms2_poc] is 0% completed
[ms2_poc] starts 2023-04-01
[ms2_poc] ends 2023-04-30
[ms2_poc] is colored in #F6E3B6

[ms1_req] - -> [ms2_poc]

- - Stream 3 - - 

[PoC<size:0>ms3_poc</size>] as [ms3_poc] is 0% completed
[ms3_poc] starts 2023-05-01
[ms3_poc] ends 2023-05-30
[ms3_poc] is colored in #F5F5F5

[ms2_poc] - -> [ms3_poc]

@endgantt

PlantUML version 1.2022.7(Tue Aug 23 02:01:30 JST 2022)
(GPL source distribution)
Java Runtime: Java(TM) SE Runtime Environment
JVM: Java HotSpot(TM) 64-Bit Server VM
Default Encoding: MS932
Language: ja
Country: JP
--></g></svg>